<svg xmlns="http://www.w3.org/2000/svg" viewBox="0 0 64 64"><rect width="64" height="64" rx="13" fill="#CD242F"/><path transform="translate(32 32) scale(0.5064) translate(-379.405 -419.08)" d="M410.53 433.88c0-16.7-14.27-24.1-30.77-24.78 0 0-11.35 0-11.35-7.74 0-2.76 2.75-7.57 11.18-7.57 3.43 0 7.73 1.54 11.51 5.16 1.55 1.37 3.61 1.71 5.33.51l7.4-5.33c1.88-1.38 1.88-3.62.51-5.17-5.85-7.22-15.3-11.35-24.75-11.35-19.6 0-29.06 12.39-29.06 23.75 0 13.59 10.31 22.88 28.88 23.91 0 0 12.72-.34 12.72 8.6 0 5-3.6 10.33-12.54 10.33-7.4 0-14.27-5.5-17.71-10.15-1.2-1.72-3.1-2.24-4.99-1.03l-6.87 4.64c-1.9 1.38-2.24 3.44-1.04 5.34 5.16 8.25 15.48 17.55 30.6 17.55 19.6 0 30.95-11.7 30.95-26.68Z" fill="#fffaed"/></svg>
