<svg xmlns="http://www.w3.org/2000/svg" fill="currentColor" fill-rule="evenodd" aria-hidden="true" focusable="false" color="#CD242F" viewBox="664 72 508 586"><g data-part="tower"><path d="M 804.539062 515.53125 L 818.351562 515.53125 L 818.351562 502.621094 L 883.003906 502.621094 L 883.019531 515.53125 L 896.9375 515.53125 L 896.9375 533.1875 L 883.914062 533.1875 L 891.558594 588.640625 L 888.46875 588.640625 L 881.34375 537.132812 C 880.816406 538.691406 880.175781 540.195312 879.429688 541.632812 L 879.449219 562.734375 L 879.410156 588.644531 L 876.339844 588.644531 L 876.339844 566.195312 L 858.789062 583.742188 L 858.789062 588.644531 L 855.714844 588.644531 L 855.714844 558.710938 C 854.09375 558.960938 852.429688 559.09375 850.738281 559.09375 C 848.925781 559.09375 847.152344 558.945312 845.421875 558.65625 L 845.421875 588.644531 L 842.347656 588.644531 L 842.347656 583.742188 L 824.796875 566.191406 L 824.796875 588.644531 L 821.726562 588.644531 L 821.6875 562.734375 L 821.707031 540.953125 C 820.992188 539.492188 820.386719 537.96875 819.894531 536.394531 L 812.667969 588.640625 L 809.578125 588.640625 L 817.246094 533.1875 L 804.539062 533.1875 Z M 806.1875 522.511719 L 818.355469 522.511719 L 818.355469 527.363281 L 806.1875 527.363281 Z M 895.289062 527.363281 L 882.992188 527.363281 L 882.992188 522.511719 L 895.289062 522.511719 Z M 895.289062 521.050781 L 883.023438 521.050781 L 883.023438 517.054688 L 895.289062 517.054688 Z M 806.1875 517.054688 L 818.355469 517.054688 L 818.355469 521.050781 L 806.1875 521.050781 Z M 858.789062 558.082031 L 858.789062 579.394531 L 875.277344 562.90625 L 867.046875 554.679688 C 864.496094 556.175781 861.722656 557.328125 858.789062 558.082031 Z M 876.339844 559.621094 L 876.339844 546.488281 C 874.441406 548.953125 872.195312 551.132812 869.679688 552.960938 Z M 842.347656 579.394531 L 842.347656 557.992188 C 839.457031 557.214844 836.726562 556.050781 834.214844 554.550781 L 825.859375 562.90625 Z M 824.796875 546.039062 L 824.796875 559.621094 L 831.605469 552.816406 C 829.011719 550.90625 826.71875 548.621094 824.796875 546.039062 Z M 883.003906 440.121094 L 818.351562 440.121094 L 818.351562 457.75 L 883.003906 457.75 Z M 883.003906 483.015625 L 818.351562 483.015625 L 818.351562 496.953125 L 883.003906 496.953125 Z M 818.351562 477.351562 L 883.003906 477.351562 L 883.003906 463.414062 L 818.351562 463.414062 Z"></path></g><g data-part="letter-s"><path d="M 785.851562 539.390625 C 785.851562 508.625 759.550781 494.988281 729.132812 493.71875 C 729.132812 493.71875 708.21875 493.71875 708.21875 479.449219 C 708.21875 474.375 713.289062 465.492188 728.816406 465.492188 C 735.152344 465.492188 743.074219 468.347656 750.046875 475.007812 C 752.898438 477.542969 756.699219 478.179688 759.867188 475.957031 L 773.492188 466.128906 C 776.980469 463.589844 776.980469 459.464844 774.445312 456.613281 C 763.671875 443.292969 746.242188 435.679688 728.816406 435.679688 C 692.691406 435.679688 675.261719 458.515625 675.261719 479.449219 C 675.261719 504.5 694.273438 521.632812 728.496094 523.53125 C 728.496094 523.53125 751.945312 522.898438 751.945312 539.390625 C 751.945312 548.589844 745.292969 558.421875 728.816406 558.421875 C 715.191406 558.421875 702.515625 548.273438 696.175781 539.707031 C 693.957031 536.535156 690.472656 535.582031 686.988281 537.804688 L 674.3125 546.367188 C 670.828125 548.90625 670.191406 552.710938 672.410156 556.199219 C 681.917969 571.421875 700.929688 588.550781 728.816406 588.550781 C 764.9375 588.550781 785.851562 566.984375 785.851562 539.390625 Z"></path></g><g data-part="letter-l"><path d="M 1028.160156 578.398438 L 1028.160156 563.8125 C 1028.160156 559.371094 1025.621094 556.835938 1021.179688 556.835938 L 963.140625 556.835938 C 960.921875 556.835938 959.652344 555.566406 959.652344 553.34375 L 959.652344 445.828125 C 959.652344 441.386719 957.113281 438.851562 952.675781 438.851562 L 932.695312 438.851562 C 928.253906 438.851562 925.714844 441.386719 925.714844 445.828125 L 925.714844 571.425781 C 925.714844 580.304688 930.789062 585.378906 939.671875 585.378906 L 1021.179688 585.378906 C 1025.621094 585.378906 1028.160156 582.839844 1028.160156 578.398438 Z"></path></g><g data-part="letter-o"><path d="M 1165.171875 535.585938 L 1165.171875 488.644531 C 1165.171875 460.417969 1142.335938 435.679688 1108.082031 435.679688 C 1073.828125 435.679688 1050.992188 460.417969 1050.992188 488.644531 L 1050.992188 535.585938 C 1050.992188 563.8125 1073.828125 588.550781 1108.082031 588.550781 C 1142.335938 588.550781 1165.171875 563.8125 1165.171875 535.585938 Z M 1131.238281 535.585938 C 1131.238281 546.683594 1122.988281 558.421875 1108.082031 558.421875 C 1093.175781 558.421875 1084.929688 546.683594 1084.929688 535.585938 L 1084.929688 488.644531 C 1084.929688 477.546875 1093.175781 465.808594 1108.082031 465.808594 C 1122.988281 465.808594 1131.238281 477.546875 1131.238281 488.644531 Z"></path></g><g data-part="script"><path d="M 790.285156 623.738281 C 786.78125 632.15625 784.621094 636.453125 783.816406 636.628906 C 783.054688 635.09375 782.660156 634.328125 782.386719 634.328125 L 781.898438 632.484375 L 781.898438 630.644531 L 781.65625 628.339844 L 781.898438 626.71875 C 782.625 626.5 783.101562 625.886719 783.328125 624.660156 C 782.140625 622.300781 781.816406 621.53125 781.171875 621.433594 L 777.339844 627.421875 C 771.589844 638.023438 768.230469 643.472656 767.261719 643.78125 C 767.261719 644.839844 768.222656 645.757812 770.144531 647.246094 L 771.574219 646.328125 L 771.574219 644.023438 C 772.929688 640 773.972656 637.851562 774.457031 637.335938 C 775.816406 633.84375 777.496094 630.765625 779.5 628.097656 C 780.082031 636.957031 781.601562 640.800781 784.054688 640.800781 L 786.214844 640.558594 L 787.160156 638.257812 C 789.269531 630.832031 791.019531 626.605469 792.199219 625.121094 C 792.199219 633.035156 794.4375 640.945312 798.914062 648.847656 L 800.851562 648.605469 L 802.285156 648.144531 C 802.023438 647.464844 801.546875 646.933594 800.851562 646.546875 C 797.167969 638.5625 795.328125 631.574219 795.328125 625.578125 C 795.328125 623.074219 794.609375 621.378906 793.167969 620.488281 C 791.941406 620.925781 791.144531 622.007812 790.285156 623.738281 Z M 1052.863281 622.769531 L 1054.511719 623.738281 C 1054.78125 623.710938 1055.421875 623.929688 1056.71875 624.074219 C 1061.363281 626.5625 1063.554688 629.96875 1063.554688 634.28125 L 1063.285156 637.578125 C 1061.652344 641.972656 1056.628906 644.167969 1048.210938 644.167969 C 1045.488281 644.167969 1044.210938 643.835938 1042.996094 643.175781 C 1040.445312 641.964844 1039.167969 639.546875 1039.167969 635.929688 C 1039.167969 634.328125 1039.894531 632.90625 1041.351562 631.664062 C 1042.222656 632.066406 1042.769531 631.296875 1042.996094 630.328125 L 1042.734375 628.683594 L 1042.996094 626.71875 L 1045.472656 625.070312 L 1047.382812 623.421875 L 1050.679688 623.082031 Z M 1040.816406 625.722656 C 1037.519531 628.957031 1035.875 632.90625 1035.875 637.578125 C 1035.875 639.78125 1036.332031 641.210938 1037.253906 642.519531 C 1037.253906 644.054688 1040.445312 645.808594 1046.828125 647.78125 L 1049.035156 647.78125 L 1050.949219 646.808594 C 1052.332031 646.90625 1052.78125 647.125 1053.6875 647.125 C 1053.960938 646.691406 1054.972656 646.253906 1056.71875 645.816406 L 1059.992188 645.164062 C 1062.878906 645.164062 1065.167969 642.632812 1066.847656 637.578125 C 1065.976562 630.113281 1064.875 626.378906 1063.554688 626.378906 C 1063.554688 624.421875 1060.722656 622.671875 1055.070312 621.117188 L 1052.597656 621.117188 C 1047.78125 621.117188 1043.855469 622.65625 1040.816406 625.722656 Z M 1027.503906 621.363281 L 1027.503906 624.804688 L 1026.726562 634.132812 L 1026.21875 642.738281 C 1025.078125 642.15625 1024.054688 641.09375 1022.871094 639.539062 C 1020.011719 631.507812 1017.863281 627.492188 1016.425781 627.492188 C 1015.050781 627.492188 1013.25 629.214844 1011.019531 632.65625 C 1005.863281 641.445312 1003.289062 646.359375 1003.289062 647.394531 C 1003.871094 648.703125 1004.304688 649.355469 1004.597656 649.355469 L 1006.125 648.121094 L 1008.449219 645.429688 L 1009.203125 643.953125 C 1009.621094 640.410156 1011.253906 637.785156 1014.097656 634.859375 L 1013.589844 636.339844 L 1015.648438 633.894531 L 1014.875 631.421875 C 1016.410156 630.691406 1017.605469 633.148438 1018.996094 638.058594 C 1020.0625 640.921875 1022.558594 644.03125 1026.484375 647.394531 C 1028.105469 646.535156 1028.542969 646.78125 1028.542969 647.152344 C 1029.011719 647.152344 1029.351562 646.417969 1029.5625 644.945312 L 1030.070312 640.269531 L 1029.828125 637.578125 C 1029.3125 636.980469 1029.054688 636.40625 1029.054688 635.855469 L 1029.828125 633.894531 C 1029.5625 631.605469 1029.222656 630.457031 1028.542969 629.699219 L 1029.296875 627.007812 C 1029.296875 625.660156 1029.640625 625.335938 1030.335938 625.289062 L 1030.070312 621.847656 C 1029.765625 621.023438 1029.164062 620.609375 1028.277344 620.609375 Z M 988.253906 623.492188 C 990.933594 628.601562 992.277344 631.769531 992.277344 632.996094 L 990.773438 633.210938 L 987.257812 634.28125 L 982.992188 635.152344 L 982.75 632.558594 L 983.746094 631.058594 L 983.988281 628.898438 L 985.003906 627.371094 L 988.011719 623.492188 Z M 979.480469 636.4375 C 975.875 638.167969 973.453125 639.464844 972.207031 640.339844 C 972.207031 642.410156 973.878906 643.34375 977.226562 643.585938 C 976.382812 646.707031 975.964844 649.003906 975.964844 650.472656 C 975.964844 651.378906 976.632812 651.882812 977.976562 651.996094 L 978.484375 647.878906 C 979.46875 646.761719 979.96875 645.542969 980.472656 643.585938 L 980.980469 641.84375 L 981.730469 638.402344 C 983.640625 637.625 984.730469 637.042969 985.003906 636.65625 C 986.644531 636.308594 987.816406 635.882812 989.269531 635.589844 L 990.773438 634.933594 C 991.257812 634.71875 991.765625 634.5 992.785156 634.5 C 996.539062 641.15625 998.046875 644.324219 998.046875 644.871094 C 998.046875 645.128906 997.292969 645.421875 995.792969 645.742188 C 995.824219 646.167969 996.996094 646.664062 999.304688 647.246094 L 1001.050781 645.527344 C 1001.050781 644.332031 1000.550781 643.25 999.546875 642.277344 C 999.402344 641.132812 998.988281 640.777344 998.550781 640.777344 L 997.777344 637.964844 C 996.988281 637.746094 996.738281 637.101562 996.539062 635.808594 L 995.792969 634.0625 C 995.945312 632.996094 995.191406 632.777344 994.53125 632.34375 C 994.160156 630.757812 993.738281 629.96875 993.269531 629.96875 L 993.535156 628.460938 C 991.652344 623.347656 989.730469 620.902344 987.5 620.902344 C 985.238281 620.902344 982.5625 626.082031 979.480469 636.4375 Z M 965.703125 625.75 L 965.65625 624.050781 Z M 962.480469 632.023438 L 962.480469 634.0625 C 963.0625 643.175781 965.242188 647.730469 969.023438 647.730469 C 967.195312 643.863281 966.019531 639.808594 966.019531 634.8125 L 966.550781 622.402344 C 966.550781 622 966.097656 621.488281 965.195312 620.875 L 963.570312 620.875 C 962.84375 620.875 962.480469 624.59375 962.480469 632.023438 Z M 937.480469 620.511719 C 931.179688 630.789062 928.03125 637.46875 928.03125 640.558594 L 928.34375 642.667969 C 928.34375 645.960938 931.816406 647.894531 938.765625 648.460938 L 942.039062 647.925781 C 947.460938 647.691406 949.84375 647.257812 949.84375 646.882812 L 956.050781 646.085938 L 960.265625 645.042969 C 960.992188 645.308594 961.867188 644.773438 962.882812 643.707031 C 962.882812 643.367188 962.230469 643.109375 960.921875 642.933594 L 938.765625 645.550781 C 934.4375 645.550781 932.269531 644.324219 932.269531 641.867188 C 932.269531 639.003906 933.675781 635.144531 936.488281 630.28125 C 937.683594 627.792969 938.777344 626.386719 939.761719 626.0625 C 940.195312 624.171875 940.632812 623.023438 941.070312 622.621094 L 939.105469 620.511719 Z M 910.421875 623.492188 C 913.105469 628.601562 914.449219 631.769531 914.449219 632.996094 L 912.945312 633.210938 L 909.429688 634.28125 L 905.164062 635.152344 L 904.921875 632.558594 L 905.914062 631.058594 L 906.160156 628.898438 L 907.175781 627.371094 L 910.183594 623.492188 Z M 901.648438 636.4375 C 898.046875 638.167969 895.625 639.464844 894.378906 640.339844 C 894.378906 642.410156 896.050781 643.34375 899.398438 643.585938 C 898.554688 646.707031 898.136719 649.003906 898.136719 650.472656 C 898.136719 651.378906 898.804688 651.882812 900.148438 651.996094 L 900.65625 647.878906 C 901.640625 646.761719 902.144531 645.542969 902.644531 643.585938 L 903.152344 641.84375 L 903.90625 638.402344 C 905.808594 637.625 906.902344 637.042969 907.175781 636.65625 C 908.816406 636.308594 909.988281 635.882812 911.441406 635.589844 L 912.945312 634.933594 C 913.429688 634.71875 913.941406 634.5 914.957031 634.5 C 918.714844 641.15625 920.21875 644.324219 920.21875 644.871094 C 920.21875 645.128906 919.464844 645.421875 917.960938 645.742188 C 917.996094 646.167969 919.167969 646.664062 921.480469 647.246094 L 923.222656 645.527344 C 923.222656 644.332031 922.722656 643.25 921.71875 642.277344 C 921.574219 641.132812 921.160156 640.777344 920.726562 640.777344 L 919.949219 637.964844 C 919.15625 637.746094 918.90625 637.101562 918.714844 635.808594 L 917.960938 634.0625 C 918.117188 632.996094 917.363281 632.777344 916.703125 632.34375 C 916.328125 630.757812 915.910156 629.96875 915.441406 629.96875 L 915.707031 628.460938 C 913.824219 623.347656 911.902344 620.902344 909.671875 620.902344 C 907.410156 620.902344 904.734375 626.082031 901.648438 636.4375 Z M 889.667969 621.191406 L 878.46875 621.773438 L 875.417969 621.484375 L 875.003906 623.492188 C 875.28125 625.03125 875.757812 625.796875 876.433594 625.796875 L 885.789062 624.925781 L 884.992188 640.144531 L 884.992188 643.007812 C 884.992188 644.910156 885.328125 646.441406 886.007812 647.585938 C 886.363281 647.585938 886.90625 647.109375 887.632812 646.15625 L 887.414062 644.726562 L 887.414062 639.855469 C 887.996094 629.707031 888.472656 624.632812 888.84375 624.632812 L 892.503906 624.632812 C 896.722656 624.632812 900.1875 625.398438 902.902344 626.933594 L 904.332031 626.355469 L 904.332031 624.34375 C 904.332031 622.746094 900.390625 621.695312 892.503906 621.191406 Z M 870.867188 625.75 L 870.816406 624.050781 Z M 867.644531 632.023438 L 867.644531 634.0625 C 868.226562 643.175781 870.40625 647.730469 874.1875 647.730469 C 872.363281 643.863281 871.183594 639.808594 871.183594 634.8125 L 871.714844 622.402344 C 871.714844 622 871.261719 621.488281 870.355469 620.875 L 868.734375 620.875 C 868.007812 620.875 867.644531 624.59375 867.644531 632.023438 Z M 842.640625 621.75 L 837.648438 623.25 C 835.4375 623.25 833.300781 624.480469 831.25 626.933594 L 831.953125 628.65625 C 833.546875 628.65625 834.160156 628.15625 834.691406 627.15625 C 837.019531 625.507812 839.214844 624.570312 841.285156 624.34375 C 842.425781 631.65625 843.253906 636.703125 844.921875 640.339844 C 845.027344 642.132812 845.710938 642.714844 846.082031 642.714844 L 847.902344 642.277344 C 847.902344 640.53125 847.296875 638.730469 846.082031 636.875 L 845.164062 630.378906 L 845.164062 624.972656 C 849.792969 623.90625 853.363281 624.917969 856.09375 626.933594 C 859.226562 629.3125 861.289062 632.261719 862.277344 635.78125 C 862 637.171875 860.855469 638.546875 858.835938 639.902344 C 851.351562 643.929688 845.957031 645.941406 842.640625 645.941406 L 842.425781 648.09375 L 844.703125 648.09375 C 846.625 648.09375 847.917969 647.519531 848.582031 646.375 L 850.398438 646.15625 L 852.675781 645.089844 L 857.9375 643.34375 C 860.132812 642.222656 860.894531 641.640625 860.894531 641.1875 L 862.710938 640.121094 C 863.339844 639.902344 864.027344 639.25 864.773438 637.941406 C 864.773438 635.5 863.941406 633.40625 862.277344 630.597656 C 860.675781 628.125 858.542969 626.039062 855.875 624.34375 C 853.210938 622.46875 848.800781 621.53125 842.640625 621.53125 Z M 830.722656 621.628906 L 827.667969 622.113281 L 817.875 624.074219 C 817.222656 624.320312 816.714844 624.640625 815.695312 624.804688 C 812.082031 625.320312 810.054688 626.144531 808.957031 627.03125 C 808.957031 628.375 809.246094 629.027344 809.832031 629.722656 C 808.011719 634.507812 806.558594 638.101562 806.558594 640.992188 L 807.210938 643.953125 C 808.570312 646.246094 811.03125 647.394531 814.605469 647.394531 C 821.539062 646.570312 825.820312 645.421875 827.449219 643.953125 L 829.414062 643.46875 C 829.074219 641.082031 828.785156 640.507812 828.539062 640.507812 C 824.066406 642.964844 819.710938 644.195312 815.039062 644.195312 L 813.296875 644.195312 C 810.695312 644.195312 809.394531 643.378906 809.394531 641.746094 L 810.046875 637.335938 C 810.484375 639.289062 811.640625 640.269531 813.949219 640.269531 C 815.113281 640.070312 815.695312 639.75 815.695312 639.296875 L 815.476562 637.820312 C 818.03125 636.847656 819.410156 636.195312 819.621094 635.855469 L 826.359375 634.378906 C 829.632812 634.265625 831.160156 633.367188 831.160156 631.929688 C 821.058594 632.875 814.457031 634.757812 810.921875 636.582031 L 812.859375 632.414062 L 815.695312 630.207031 L 814.386719 627.761719 C 816.566406 626.773438 818.894531 625.957031 821.367188 625.3125 L 823.089844 624.558594 C 824.6875 624.558594 824.832031 624.320312 824.832031 623.835938 C 826.140625 623.589844 826.796875 623.179688 826.796875 622.597656 L 828.324219 623.347656 L 829.851562 622.113281 L 831.597656 622.355469 L 833.121094 622.355469 L 835.28125 621.628906 L 837.460938 621.871094 L 839.207031 621.386719 L 837.460938 620.902344 L 834.40625 620.902344 Z"></path></g><g data-part="spout"><path d="M 866.132812 93.164062 L 850.632812 80.953125 L 835.136719 93.164062 Z M 850.125 90.28125 L 851.144531 78.304688 Z M 831.132812 96.316406 L 818.625 106.167969 L 882.640625 106.167969 L 870.132812 96.316406 Z M 831.132812 96.316406"></path></g><g data-part="grains"><path style="--gx:832.1;--gy:421.9" d="M 830.003906 427.371094 C 828.738281 427.371094 828.207031 426.707031 828.207031 424.980469 C 828.207031 422.121094 833.792969 416.402344 835.917969 416.402344 C 835.917969 424.714844 831.730469 427.371094 830.003906 427.371094 Z"></path><path style="--gx:821.9;--gy:388.0" d="M 819.296875 389.011719 C 819.296875 387.085938 819.964844 384.625 821.625 381.632812 C 822.953125 382.429688 824.550781 387.351562 824.550781 390.675781 C 824.550781 392.136719 823.953125 394.199219 822.421875 394.398438 C 819.898438 394.398438 819.230469 390.808594 819.296875 389.011719 Z"></path><path style="--gx:816.3;--gy:410.6" d="M 821.492188 411.351562 C 821.492188 412.878906 820.496094 413.480469 818.832031 413.480469 C 815.511719 413.480469 811.851562 411.085938 811.054688 408.957031 C 811.984375 408.492188 813.382812 407.761719 816.441406 407.761719 C 819.097656 407.761719 821.492188 409.15625 821.492188 411.351562 Z"></path><path style="--gx:888.4;--gy:325.5" d="M 890.503906 320.058594 C 891.765625 320.058594 892.296875 320.726562 892.296875 322.453125 C 892.296875 325.3125 886.710938 331.03125 884.585938 331.03125 C 884.585938 322.71875 888.773438 320.058594 890.503906 320.058594 Z"></path><path style="--gx:898.6;--gy:359.4" d="M 901.207031 358.417969 C 901.207031 360.347656 900.542969 362.808594 898.878906 365.800781 C 897.550781 365 895.957031 360.082031 895.957031 356.757812 C 895.957031 355.292969 896.550781 353.234375 898.082031 353.035156 C 900.609375 353.035156 901.273438 356.625 901.207031 358.417969 Z"></path><path style="--gx:904.2;--gy:336.8" d="M 899.011719 336.082031 C 899.011719 334.554688 900.007812 333.953125 901.671875 333.953125 C 904.996094 333.953125 908.652344 336.347656 909.449219 338.476562 C 908.519531 338.941406 907.125 339.671875 904.066406 339.671875 C 901.40625 339.671875 899.011719 338.277344 899.011719 336.082031 Z"></path><path style="--gx:846.4;--gy:362.5" d="M 848.457031 357.046875 C 849.722656 357.046875 850.253906 357.710938 850.253906 359.4375 C 850.253906 362.296875 844.667969 368.015625 842.542969 368.015625 C 842.542969 359.703125 846.730469 357.046875 848.457031 357.046875 Z"></path><path style="--gx:878.5;--gy:388.8" d="M 880.578125 383.347656 C 881.84375 383.347656 882.371094 384.011719 882.371094 385.738281 C 882.371094 388.597656 876.789062 394.316406 874.660156 394.316406 C 874.660156 386.003906 878.847656 383.347656 880.578125 383.347656 Z"></path><path style="--gx:856.6;--gy:396.4" d="M 859.164062 395.40625 C 859.164062 397.332031 858.496094 399.792969 856.835938 402.785156 C 855.507812 401.988281 853.910156 397.066406 853.910156 393.742188 C 853.910156 392.28125 854.507812 390.21875 856.035156 390.019531 C 858.5625 390.019531 859.226562 393.609375 859.164062 395.40625 Z"></path><path style="--gx:862.2;--gy:373.8" d="M 856.96875 373.066406 C 856.96875 371.539062 857.964844 370.9375 859.625 370.9375 C 862.953125 370.9375 866.609375 373.332031 867.40625 375.460938 C 866.476562 375.925781 865.078125 376.65625 862.019531 376.65625 C 859.363281 376.65625 856.96875 375.261719 856.96875 373.066406 Z"></path><path style="--gx:852.2;--gy:249.7" d="M 857.707031 251.808594 C 857.707031 253.070312 857.042969 253.601562 855.316406 253.601562 C 852.457031 253.601562 846.738281 248.019531 846.738281 245.890625 C 855.050781 245.890625 857.707031 250.078125 857.707031 251.808594 Z"></path><path style="--gx:830.5;--gy:278.0" d="M 831.457031 280.542969 C 829.53125 280.542969 827.070312 279.875 824.078125 278.214844 C 824.878906 276.886719 829.796875 275.292969 833.121094 275.292969 C 834.585938 275.292969 836.644531 275.886719 836.84375 277.417969 C 836.84375 279.941406 833.253906 280.609375 831.457031 280.542969 Z"></path><path style="--gx:818.8;--gy:341.8" d="M 819.542969 336.617188 C 821.070312 336.617188 821.671875 337.613281 821.671875 339.273438 C 821.671875 342.597656 819.277344 346.257812 817.148438 347.054688 C 816.683594 346.125 815.953125 344.726562 815.953125 341.667969 C 815.953125 339.011719 817.347656 336.617188 819.542969 336.617188 Z"></path><path style="--gx:830.8;--gy:137.1" d="M 832.882812 131.589844 C 834.148438 131.589844 834.679688 132.257812 834.679688 133.984375 C 834.679688 136.84375 829.09375 142.558594 826.96875 142.558594 C 826.96875 134.25 831.15625 131.589844 832.882812 131.589844 Z"></path><path style="--gx:841.0;--gy:170.9" d="M 843.589844 169.949219 C 843.589844 171.878906 842.921875 174.339844 841.261719 177.332031 C 839.933594 176.53125 838.335938 171.613281 838.335938 168.289062 C 838.335938 166.828125 838.933594 164.765625 840.464844 164.566406 C 842.988281 164.566406 843.65625 168.15625 843.589844 169.949219 Z"></path><path style="--gx:846.6;--gy:148.3" d="M 841.394531 147.613281 C 841.394531 146.082031 842.390625 145.484375 844.054688 145.484375 C 847.375 145.484375 851.035156 147.878906 851.832031 150.007812 C 850.902344 150.472656 849.503906 151.203125 846.445312 151.203125 C 843.789062 151.203125 841.394531 149.808594 841.394531 147.613281 Z"></path><path style="--gx:834.1;--gy:233.6" d="M 832.015625 239.09375 C 830.75 239.09375 830.21875 238.429688 830.21875 236.703125 C 830.21875 233.84375 835.804688 228.128906 837.929688 228.128906 C 837.929688 236.4375 833.742188 239.09375 832.015625 239.09375 Z"></path><path style="--gx:823.9;--gy:199.7" d="M 821.308594 200.734375 C 821.308594 198.808594 821.976562 196.347656 823.636719 193.355469 C 824.964844 194.152344 826.5625 199.074219 826.5625 202.398438 C 826.5625 203.859375 825.964844 205.921875 824.433594 206.121094 C 821.910156 206.121094 821.242188 202.53125 821.308594 200.734375 Z"></path><path style="--gx:818.3;--gy:222.3" d="M 823.503906 223.074219 C 823.503906 224.601562 822.507812 225.203125 820.84375 225.203125 C 817.519531 225.203125 813.863281 222.808594 813.066406 220.679688 C 813.996094 220.214844 815.394531 219.484375 818.449219 219.484375 C 821.109375 219.484375 823.503906 220.878906 823.503906 223.074219 Z"></path><path style="--gx:876.1;--gy:196.6" d="M 874.058594 202.109375 C 872.792969 202.109375 872.261719 201.445312 872.261719 199.714844 C 872.261719 196.859375 877.847656 191.140625 879.972656 191.140625 C 879.972656 199.449219 875.785156 202.109375 874.058594 202.109375 Z"></path><path style="--gx:844.0;--gy:170.3" d="M 841.9375 175.808594 C 840.675781 175.808594 840.144531 175.144531 840.144531 173.414062 C 840.144531 170.558594 845.730469 164.839844 847.855469 164.839844 C 847.855469 173.152344 843.667969 175.808594 841.9375 175.808594 Z"></path><path style="--gx:865.9;--gy:162.8" d="M 863.355469 163.75 C 863.355469 161.824219 864.019531 159.363281 865.679688 156.371094 C 867.007812 157.167969 868.605469 162.089844 868.605469 165.414062 C 868.605469 166.875 868.007812 168.933594 866.480469 169.136719 C 863.953125 169.136719 863.289062 165.542969 863.355469 163.75 Z"></path><path style="--gx:860.3;--gy:185.4" d="M 865.546875 186.085938 C 865.546875 187.617188 864.550781 188.214844 862.890625 188.214844 C 859.566406 188.214844 855.90625 185.820312 855.109375 183.695312 C 856.039062 183.226562 857.4375 182.5 860.496094 182.5 C 863.15625 182.5 865.546875 183.894531 865.546875 186.085938 Z"></path><path style="--gx:823.2;--gy:256.1" d="M 817.699219 254.023438 C 817.699219 252.757812 818.363281 252.226562 820.09375 252.226562 C 822.953125 252.226562 828.671875 257.8125 828.671875 259.9375 C 820.359375 259.9375 817.699219 255.75 817.699219 254.023438 Z"></path><path style="--gx:844.9;--gy:227.9" d="M 843.949219 225.289062 C 845.875 225.289062 848.335938 225.953125 851.328125 227.613281 C 850.53125 228.945312 845.609375 230.539062 842.285156 230.539062 C 840.824219 230.539062 838.765625 229.941406 838.5625 228.414062 C 838.5625 225.886719 842.152344 225.222656 843.949219 225.289062 Z"></path><path style="--gx:856.6;--gy:164.0" d="M 855.867188 169.214844 C 854.335938 169.214844 853.738281 168.21875 853.738281 166.554688 C 853.738281 163.230469 856.128906 159.574219 858.257812 158.777344 C 858.722656 159.707031 859.453125 161.101562 859.453125 164.160156 C 859.453125 166.820312 858.058594 169.214844 855.867188 169.214844 Z"></path><path style="--gx:881.2;--gy:244.6" d="M 883.246094 239.09375 C 884.511719 239.09375 885.042969 239.761719 885.042969 241.488281 C 885.042969 244.347656 879.457031 250.0625 877.328125 250.0625 C 877.328125 241.753906 881.519531 239.09375 883.246094 239.09375 Z"></path><path style="--gx:891.4;--gy:278.5" d="M 893.949219 277.453125 C 893.949219 279.382812 893.285156 281.84375 891.625 284.835938 C 890.292969 284.035156 888.699219 279.117188 888.699219 275.792969 C 888.699219 274.332031 889.296875 272.269531 890.824219 272.070312 C 893.351562 272.070312 894.015625 275.660156 893.949219 277.453125 Z"></path><path style="--gx:897.0;--gy:255.8" d="M 891.757812 255.117188 C 891.757812 253.585938 892.753906 252.988281 894.414062 252.988281 C 897.738281 252.988281 901.398438 255.382812 902.195312 257.511719 C 901.265625 257.976562 899.867188 258.707031 896.808594 258.707031 C 894.148438 258.707031 891.757812 257.3125 891.757812 255.117188 Z"></path><path style="--gx:824.8;--gy:340.9" d="M 822.746094 346.410156 C 821.480469 346.410156 820.953125 345.742188 820.953125 344.015625 C 820.953125 341.15625 826.535156 335.4375 828.664062 335.4375 C 828.664062 343.75 824.472656 346.410156 822.746094 346.410156 Z"></path><path style="--gx:814.6;--gy:307.1" d="M 812.042969 308.050781 C 812.042969 306.121094 812.707031 303.664062 814.367188 300.667969 C 815.695312 301.46875 817.292969 306.386719 817.292969 309.710938 C 817.292969 311.171875 816.695312 313.234375 815.167969 313.433594 C 812.640625 313.433594 811.976562 309.84375 812.042969 308.050781 Z"></path><path style="--gx:809.0;--gy:329.7" d="M 814.234375 330.386719 C 814.234375 331.914062 813.238281 332.515625 811.578125 332.515625 C 808.253906 332.515625 804.597656 330.121094 803.796875 327.992188 C 804.726562 327.527344 806.125 326.796875 809.183594 326.796875 C 811.84375 326.796875 814.234375 328.191406 814.234375 330.386719 Z"></path><path style="--gx:866.9;--gy:303.9" d="M 864.789062 309.421875 C 863.527344 309.421875 862.996094 308.757812 862.996094 307.03125 C 862.996094 304.171875 868.582031 298.453125 870.707031 298.453125 C 870.707031 306.765625 866.519531 309.421875 864.789062 309.421875 Z"></path><path style="--gx:834.7;--gy:277.6" d="M 832.671875 283.121094 C 831.40625 283.121094 830.875 282.457031 830.875 280.730469 C 830.875 277.871094 836.460938 272.152344 838.585938 272.152344 C 838.585938 280.464844 834.398438 283.121094 832.671875 283.121094 Z"></path><path style="--gx:856.7;--gy:270.1" d="M 854.085938 271.0625 C 854.085938 269.136719 854.75 266.675781 856.414062 263.683594 C 857.742188 264.480469 859.335938 269.402344 859.335938 272.726562 C 859.335938 274.1875 858.742188 276.246094 857.210938 276.449219 C 854.683594 276.449219 854.019531 272.859375 854.085938 271.0625 Z"></path><path style="--gx:851.1;--gy:292.7" d="M 856.28125 293.398438 C 856.28125 294.929688 855.28125 295.527344 853.621094 295.527344 C 850.296875 295.527344 846.640625 293.136719 845.839844 291.007812 C 846.773438 290.542969 848.167969 289.8125 851.226562 289.8125 C 853.886719 289.8125 856.28125 291.207031 856.28125 293.398438 Z"></path><path style="--gx:861.0;--gy:416.7" d="M 855.539062 414.660156 C 855.539062 413.394531 856.207031 412.863281 857.933594 412.863281 C 860.792969 412.863281 866.511719 418.449219 866.511719 420.578125 C 858.199219 420.578125 855.539062 416.386719 855.539062 414.660156 Z"></path><path style="--gx:882.8;--gy:388.5" d="M 881.789062 385.925781 C 883.71875 385.925781 886.175781 386.589844 889.167969 388.253906 C 888.371094 389.582031 883.453125 391.175781 880.128906 391.175781 C 878.664062 391.175781 876.605469 390.582031 876.40625 389.050781 C 876.40625 386.523438 879.996094 385.859375 881.789062 385.925781 Z"></path><path style="--gx:894.4;--gy:324.6" d="M 893.707031 329.851562 C 892.175781 329.851562 891.578125 328.855469 891.578125 327.191406 C 891.578125 323.867188 893.972656 320.210938 896.097656 319.414062 C 896.566406 320.34375 897.296875 321.742188 897.296875 324.800781 C 897.296875 327.457031 895.898438 329.851562 893.707031 329.851562 Z"></path><path style="--gx:876.6;--gy:131.7" d="M 878.613281 126.195312 C 879.875 126.195312 880.40625 126.859375 880.40625 128.585938 C 880.40625 131.445312 874.824219 137.164062 872.695312 137.164062 C 872.695312 128.851562 876.882812 126.195312 878.613281 126.195312 Z"></path><path style="--gx:886.7;--gy:165.6" d="M 889.316406 164.554688 C 889.316406 166.480469 888.652344 168.941406 886.988281 171.933594 C 885.660156 171.136719 884.066406 166.214844 884.066406 162.890625 C 884.066406 161.429688 884.664062 159.367188 886.191406 159.167969 C 888.71875 159.167969 889.382812 162.757812 889.316406 164.554688 Z"></path><path style="--gx:892.3;--gy:142.9" d="M 887.121094 142.214844 C 887.121094 140.6875 888.117188 140.085938 889.78125 140.085938 C 893.105469 140.085938 896.761719 142.480469 897.558594 144.609375 C 896.628906 145.074219 895.234375 145.804688 892.175781 145.804688 C 889.515625 145.804688 887.121094 144.410156 887.121094 142.214844 Z"></path><path style="--gx:820.2;--gy:228.0" d="M 818.113281 233.507812 C 816.847656 233.507812 816.316406 232.839844 816.316406 231.113281 C 816.316406 228.253906 821.902344 222.539062 824.027344 222.539062 C 824.027344 230.847656 819.839844 233.507812 818.113281 233.507812 Z"></path><path style="--gx:810.0;--gy:194.2" d="M 807.410156 195.148438 C 807.410156 193.21875 808.074219 190.761719 809.734375 187.769531 C 811.0625 188.566406 812.660156 193.484375 812.660156 196.808594 C 812.660156 198.273438 812.0625 200.332031 810.53125 200.53125 C 808.007812 200.53125 807.339844 196.941406 807.410156 195.148438 Z"></path><path style="--gx:804.4;--gy:216.8" d="M 809.601562 217.484375 C 809.601562 219.015625 808.605469 219.613281 806.941406 219.613281 C 803.617188 219.613281 799.960938 217.21875 799.164062 215.089844 C 800.09375 214.625 801.492188 213.894531 804.550781 213.894531 C 807.207031 213.894531 809.601562 215.289062 809.601562 217.484375 Z"></path><path style="--gx:862.2;--gy:191.0" d="M 860.15625 196.519531 C 858.890625 196.519531 858.359375 195.855469 858.359375 194.128906 C 858.359375 191.269531 863.945312 185.554688 866.070312 185.554688 C 866.070312 193.863281 861.882812 196.519531 860.15625 196.519531 Z"></path><path style="--gx:830.1;--gy:164.7" d="M 828.039062 170.222656 C 826.773438 170.222656 826.242188 169.554688 826.242188 167.828125 C 826.242188 164.96875 831.828125 159.253906 833.953125 159.253906 C 833.953125 167.5625 829.765625 170.222656 828.039062 170.222656 Z"></path><path style="--gx:852.0;--gy:157.2" d="M 849.453125 158.160156 C 849.453125 156.234375 850.117188 153.773438 851.78125 150.78125 C 853.109375 151.578125 854.703125 156.5 854.703125 159.824219 C 854.703125 161.285156 854.105469 163.347656 852.578125 163.546875 C 850.050781 163.546875 849.386719 159.957031 849.453125 158.160156 Z"></path><path style="--gx:846.4;--gy:179.8" d="M 851.644531 180.5 C 851.644531 182.027344 850.648438 182.628906 848.988281 182.628906 C 845.664062 182.628906 842.003906 180.234375 841.207031 178.105469 C 842.140625 177.640625 843.535156 176.910156 846.59375 176.910156 C 849.253906 176.910156 851.644531 178.304688 851.644531 180.5 Z"></path><path style="--gx:856.4;--gy:303.8" d="M 850.90625 301.757812 C 850.90625 300.496094 851.570312 299.964844 853.300781 299.964844 C 856.15625 299.964844 861.878906 305.546875 861.878906 307.675781 C 853.566406 307.675781 850.90625 303.488281 850.90625 301.757812 Z"></path><path style="--gx:878.2;--gy:275.6" d="M 877.15625 273.023438 C 879.082031 273.023438 881.542969 273.691406 884.535156 275.351562 C 883.738281 276.679688 878.816406 278.273438 875.492188 278.273438 C 874.03125 278.273438 871.972656 277.679688 871.769531 276.148438 C 871.769531 273.621094 875.359375 272.957031 877.15625 273.023438 Z"></path><path style="--gx:889.8;--gy:211.7" d="M 889.070312 216.949219 C 887.542969 216.949219 886.945312 215.953125 886.945312 214.292969 C 886.945312 210.96875 889.335938 207.308594 891.464844 206.511719 C 891.933594 207.441406 892.660156 208.839844 892.660156 211.898438 C 892.660156 214.554688 891.265625 216.949219 889.070312 216.949219 Z"></path></g></svg>