<svg xmlns="http://www.w3.org/2000/svg" fill="currentColor" aria-hidden="true" focusable="false" color="#E8DEC7" viewBox="345.98 328.23 273.33 135.37"><path d="m454.08 349.28-8.4-6.62-8.41 6.62ZM435.1 351l-6.78 5.35h34.73l-6.79-5.35Zm0 0"/><path d="M445.4 347.72h.55v-6.5h-.55Zm-3.8 88.22.56-.55-10.84-10.84-.55.56Zm8.26 0-.56-.55 10.84-10.84.55.56Zm0 0"/><path d="m428.23 426.2-.02.85a17.52 17.52 0 1 0 35.02-.85Zm0 0"/><path d="M463.23 380.02h-35.07v9.56h35.07Zm-35.07 20.2h35.07v-7.56h-35.07Zm35.07 3.07h-35.07v7.56h35.07Zm-35.07 24.25h35.07v-13.61h-35.07Zm5.05-50.14c-.68 0-.97-.36-.97-1.3 0-1.55 3.03-4.65 4.18-4.65 0 4.5-2.27 5.94-3.2 5.94m-11.3-22.33c0-1.04.36-2.38 1.26-4 .72.43 1.59 3.1 1.59 4.9 0 .8-.32 1.92-1.16 2.02-1.36 0-1.73-1.94-1.7-2.92m7.95 9.35c0 .83-.54 1.15-1.44 1.15-1.8 0-3.79-1.3-4.22-2.45.5-.25 1.26-.65 2.92-.65 1.45 0 2.74.76 2.74 1.95M481 334.15c0 1.04-.37 2.38-1.27 4-.72-.43-1.59-3.1-1.59-4.9 0-.8.33-1.92 1.16-2.02 1.37 0 1.73 1.94 1.7 2.92m-2.71 16.49c0-.83.53-1.16 1.44-1.16 1.8 0 3.79 1.3 4.22 2.46-.5.25-1.26.65-2.92.65-1.45 0-2.74-.76-2.74-1.95m-60.79-5.88c.69 0 .98.36.98 1.3 0 1.55-3.03 4.65-4.19 4.65 0-4.5 2.28-5.95 3.21-5.95m48.92 12.62c.68 0 .97.36.97 1.3 0 1.55-3.03 4.65-4.18 4.65 0-4.51 2.27-5.95 3.2-5.95m-11.48 6.92c0 1.05-.37 2.39-1.27 4.01-.72-.43-1.59-3.1-1.59-4.9 0-.8.33-1.91 1.16-2.02 1.37 0 1.73 1.94 1.7 2.92m29.33-3.76c0-.82.54-1.15 1.44-1.15 1.8 0 3.78 1.3 4.22 2.46-.5.25-1.26.64-2.92.64-1.45 0-2.74-.75-2.74-1.95m-45.54-1.39c.83 0 1.15.55 1.15 1.45 0 1.8-1.3 3.78-2.45 4.22-.25-.5-.65-1.26-.65-2.92 0-1.45.76-2.75 1.95-2.75m-12.59-13.64c-.68 0-.97-.36-.97-1.3 0-1.55 3.03-4.65 4.18-4.65 0 4.5-2.27 5.95-3.21 5.95m-28.18-2.86c0 .83-.54 1.16-1.44 1.16-1.8 0-3.8-1.3-4.22-2.46.5-.25 1.26-.65 2.92-.65 1.44 0 2.74.76 2.74 1.95m47.15 27.39c0-.69.36-.97 1.3-.97 1.55 0 4.65 3.03 4.65 4.18-4.51 0-5.95-2.27-5.95-3.2m17.8-.94c1.03 0 2.37.36 4 1.26-.44.72-3.1 1.59-4.91 1.59-.8 0-1.91-.33-2.02-1.15 0-1.37 1.95-1.74 2.92-1.7"/><path d="M420.67 430.51h50.12v-3.16h-50.12Zm0-8.83h50.12v-.75h-50.12Zm0 3.01h50.12v-.76h-50.12Zm0 0"/><path d="M469.9 430h.9v-9.07h-.9Zm-49.23 0h.89v-9.07h-.9Zm28.53 30.15h.78v-36.7h-.78Zm0 0"/><path d="m449.85 436.57-.55-.55 10.83-10.83.55.55Zm0 0"/><path d="m449.85 435.7-.55.56 10.83 10.83.55-.55Zm0 0"/><path d="m449.85 457.56-.55-.55 10.83-10.83.55.55Zm0 0"/><path d="M450.1 460.6h-1.67V423h1.67Zm11.19 0h-1.67V423h1.67Zm0 0"/><path d="m449.85 437.2-1.18-1.18 11.46-11.46 1.17 1.18Zm0 0"/><path d="m460.13 447.72-11.46-11.46 1.18-1.18 11.46 11.46Zm0 0"/><path d="m449.85 458.19-1.18-1.18 11.46-11.46 1.17 1.18Zm16.35 2.41h1.68l-5.2-37.6H461Zm-24.9-.45h.78v-36.7h-.78Zm0 0"/><path d="m441.43 436.57.55-.55-10.83-10.83-.55.55Zm0 0"/><path d="m441.43 435.7.55.56-10.83 10.83-.55-.55Zm0 0"/><path d="m441.43 457.56.55-.55-10.83-10.83-.55.55Zm0 0"/><path d="M441.18 460.6h1.67V423h-1.67Zm-11.19 0h1.67V423h-1.67Zm0 0"/><path d="m441.43 437.2 1.18-1.18-11.46-11.46-1.18 1.18Zm0 0"/><path d="m431.15 447.72 11.46-11.46-1.18-1.18-11.46 11.46Zm0 0"/><path d="m441.43 458.19 1.18-1.18-11.46-11.46-1.18 1.18Zm-16.36 2.41h-1.67l5.2-37.6h1.68Zm116.91-5.56v-7.92c0-2.4-1.37-3.78-3.78-3.78h-31.5c-1.2 0-1.9-.7-1.9-1.9v-58.33c0-2.4-1.37-3.78-3.78-3.78H490.2c-2.4 0-3.78 1.38-3.78 3.78v68.14c0 4.82 2.75 7.57 7.57 7.57h44.22c2.4 0 3.78-1.37 3.78-3.78m74.34-23.23v-25.47c0-15.3-12.4-28.73-30.98-28.73s-30.97 13.42-30.97 28.73v25.47c0 15.31 12.4 28.74 30.97 28.74 18.59 0 30.98-13.43 30.98-28.74m-18.41 0c0 6.02-4.48 12.39-12.57 12.39s-12.56-6.37-12.56-12.4v-25.46c0-6.02 4.48-12.38 12.56-12.38s12.57 6.36 12.57 12.38Zm-187.39 2.07c0-16.7-14.27-24.1-30.77-24.78 0 0-11.35 0-11.35-7.74 0-2.76 2.75-7.57 11.18-7.57 3.43 0 7.73 1.54 11.51 5.16 1.55 1.37 3.61 1.71 5.33.51l7.4-5.33c1.88-1.38 1.88-3.62.51-5.17-5.85-7.22-15.3-11.35-24.75-11.35-19.6 0-29.06 12.39-29.06 23.75 0 13.59 10.31 22.88 28.88 23.91 0 0 12.72-.34 12.72 8.6 0 5-3.6 10.33-12.54 10.33-7.4 0-14.27-5.5-17.71-10.15-1.2-1.72-3.1-2.24-4.99-1.03l-6.87 4.64c-1.9 1.38-2.24 3.44-1.04 5.34 5.16 8.25 15.48 17.55 30.6 17.55 19.6 0 30.95-11.7 30.95-26.68"/></svg>